<svg id="Layer_1" data-name="Layer 1" xmlns="http://www.w3.org/2000/svg" width="50" height="50" viewBox="0 0 50 50"><title>facebook-icon</title><path d="M50,25A25,25,0,1,0,21.09,49.7V32.23H14.75V25h6.35V19.49c0-6.27,3.73-9.73,9.44-9.73a38.45,38.45,0,0,1,5.6.49v6.15H33c-3.11,0-4.07,1.93-4.07,3.9V25h6.93l-1.11,7.23H28.91V49.7A25,25,0,0,0,50,25Z" style="fill:#1877f2"/><path d="M34.73,32.23L35.84,25H28.91V20.31c0-2,1-3.9,4.07-3.9h3.15V10.25a38.45,38.45,0,0,0-5.6-.49c-5.71,0-9.44,3.46-9.44,9.73V25H14.75v7.23h6.35V49.7a25.26,25.26,0,0,0,7.81,0V32.23h5.83Z" style="fill:#fff"/></svg>