<svg id="Layer_1" data-name="Layer 1" xmlns="http://www.w3.org/2000/svg" xmlns:xlink="http://www.w3.org/1999/xlink" width="209.34" height="55" viewBox="0 0 209.34 55"><defs><radialGradient id="Nueva_muestra_de_degradado_3" cx="117.28" cy="45.75" r="7.23" gradientUnits="userSpaceOnUse"><stop offset="0" stop-color="#fec053"/><stop offset="0.47" stop-color="#f2203e"/><stop offset="0.71" stop-color="#b71fa8"/><stop offset="1" stop-color="#5351d6"/></radialGradient><radialGradient id="Nueva_muestra_de_degradado_3-2" cx="133.08" cy="45.75" r="7.11" xlink:href="#Nueva_muestra_de_degradado_3"/><radialGradient id="Nueva_muestra_de_degradado_3-3" cx="78.89" cy="24.68" r="113.4" xlink:href="#Nueva_muestra_de_degradado_3"/><radialGradient id="Nueva_muestra_de_degradado_3-18" cx="9.2" cy="49.12" r="62.82" xlink:href="#Nueva_muestra_de_degradado_3"/></defs><title>ig btn</title><path d="M78.89,1.85V19.92h-3V1.85h3Z"/><path d="M93.05,6.06a5,5,0,0,1,2.09,2.08,6.84,6.84,0,0,1,.75,3.33v8.45H93v-8a4.16,4.16,0,0,0-1-3,3.42,3.42,0,0,0-2.63-1,3.47,3.47,0,0,0-2.64,1,4.12,4.12,0,0,0-1,3v8h-3V5.59h3V7.23a4.91,4.91,0,0,1,1.86-1.38A6,6,0,0,1,90,5.36,6.42,6.42,0,0,1,93.05,6.06Z"/><path d="M101.84,19.54a5.32,5.32,0,0,1-2.12-1.66,4.15,4.15,0,0,1-.83-2.35H102a2.09,2.09,0,0,0,.87,1.52,3.16,3.16,0,0,0,2,.61,3.35,3.35,0,0,0,1.94-.48,1.45,1.45,0,0,0,.69-1.23,1.27,1.27,0,0,0-.77-1.2,14.36,14.36,0,0,0-2.43-.86,23.33,23.33,0,0,1-2.63-.86,4.6,4.6,0,0,1-1.75-1.27,3.34,3.34,0,0,1-.74-2.26A3.53,3.53,0,0,1,99.8,7.4a4.51,4.51,0,0,1,1.94-1.5,7.24,7.24,0,0,1,2.9-.55,6,6,0,0,1,3.94,1.23,4.44,4.44,0,0,1,1.6,3.37h-3a2.11,2.11,0,0,0-.78-1.53,2.92,2.92,0,0,0-1.9-.57,3.08,3.08,0,0,0-1.79.44,1.37,1.37,0,0,0-.62,1.17,1.27,1.27,0,0,0,.42,1,3,3,0,0,0,1,.61q0.6,0.22,1.77.56a19.23,19.23,0,0,1,2.56.84,4.77,4.77,0,0,1,1.73,1.26,3.34,3.34,0,0,1,.75,2.21,3.71,3.71,0,0,1-.68,2.18,4.48,4.48,0,0,1-1.91,1.51,7.12,7.12,0,0,1-2.9.55A7.22,7.22,0,0,1,101.84,19.54Z"/><path d="M117,8v7.93a1.52,1.52,0,0,0,.38,1.16,1.87,1.87,0,0,0,1.29.35h1.82v2.47h-2.34a4.51,4.51,0,0,1-3.07-.94,3.86,3.86,0,0,1-1.07-3V8h-1.69V5.59H114V2h3V5.59h3.48V8H117Z"/><path d="M123.13,8.87A6.54,6.54,0,0,1,129,5.36a6.25,6.25,0,0,1,3,.66,6,6,0,0,1,2,1.65V5.59h3V19.92h-3V17.79a5.89,5.89,0,0,1-2.05,1.69,6.65,6.65,0,0,1-6.34-.27,6.73,6.73,0,0,1-2.43-2.65,8.16,8.16,0,0,1-.9-3.86A7.93,7.93,0,0,1,123.13,8.87Zm10.22,1.3a4.29,4.29,0,0,0-1.6-1.66,4.19,4.19,0,0,0-2.13-.57,4.26,4.26,0,0,0-2.13.56,4.21,4.21,0,0,0-1.6,1.64,5.11,5.11,0,0,0-.61,2.56,5.33,5.33,0,0,0,.61,2.6A4.3,4.3,0,0,0,127.5,17a4.14,4.14,0,0,0,2.12.58,4.19,4.19,0,0,0,2.13-.57,4.27,4.27,0,0,0,1.6-1.68,5.27,5.27,0,0,0,.61-2.59A5.19,5.19,0,0,0,133.35,10.17Z"/><path d="M149.57,6a5.67,5.67,0,0,1,2,1.65V5.59h3V20.15a7.32,7.32,0,0,1-.83,3.52,6,6,0,0,1-2.41,2.43,7.56,7.56,0,0,1-3.76.88,8.15,8.15,0,0,1-4.84-1.36,5,5,0,0,1-2.18-3.71h2.94a3.19,3.19,0,0,0,1.44,1.81,4.89,4.89,0,0,0,2.64.69,4,4,0,0,0,2.9-1.09,4.27,4.27,0,0,0,1.1-3.17V17.76a6,6,0,0,1-2,1.7,6.1,6.1,0,0,1-2.92.69,6.41,6.41,0,0,1-3.42-.95,6.7,6.7,0,0,1-2.44-2.65,8.16,8.16,0,0,1-.9-3.86,7.93,7.93,0,0,1,.9-3.82,6.54,6.54,0,0,1,5.86-3.51A6.35,6.35,0,0,1,149.57,6Zm1.4,4.15a4.29,4.29,0,0,0-1.6-1.66,4.19,4.19,0,0,0-2.13-.57,4.26,4.26,0,0,0-2.13.56,4.21,4.21,0,0,0-1.6,1.64,5.11,5.11,0,0,0-.61,2.56,5.33,5.33,0,0,0,.61,2.6,4.3,4.3,0,0,0,1.61,1.7,4.14,4.14,0,0,0,2.12.58,4.19,4.19,0,0,0,2.13-.57,4.27,4.27,0,0,0,1.6-1.68,5.27,5.27,0,0,0,.61-2.59A5.19,5.19,0,0,0,151,10.17Z"/><path d="M163.17,6a5.12,5.12,0,0,1,2.56-.61V8.43H165a3.61,3.61,0,0,0-2.64.88,4.23,4.23,0,0,0-.9,3.07v7.54h-3V5.59h3V7.67A4.65,4.65,0,0,1,163.17,6Z"/><path d="M168.37,8.87a6.54,6.54,0,0,1,5.86-3.51,6.25,6.25,0,0,1,3,.66,6,6,0,0,1,2,1.65V5.59h3V19.92h-3V17.79a5.89,5.89,0,0,1-2.05,1.69,6.65,6.65,0,0,1-6.34-.27,6.73,6.73,0,0,1-2.43-2.65,8.16,8.16,0,0,1-.9-3.86A7.93,7.93,0,0,1,168.37,8.87Zm10.22,1.3A4.29,4.29,0,0,0,177,8.5a4.19,4.19,0,0,0-2.13-.57,4.26,4.26,0,0,0-2.13.56,4.21,4.21,0,0,0-1.6,1.64,5.11,5.11,0,0,0-.61,2.56,5.33,5.33,0,0,0,.61,2.6,4.3,4.3,0,0,0,1.61,1.7,4.14,4.14,0,0,0,2.12.58A4.19,4.19,0,0,0,177,17a4.27,4.27,0,0,0,1.6-1.68,5.27,5.27,0,0,0,.61-2.59A5.19,5.19,0,0,0,178.59,10.17Z"/><path d="M206.46,6.06a5.07,5.07,0,0,1,2.11,2.08,6.75,6.75,0,0,1,.77,3.33v8.45H206.4v-8a4.16,4.16,0,0,0-1-3,3.42,3.42,0,0,0-2.63-1,3.47,3.47,0,0,0-2.64,1,4.12,4.12,0,0,0-1,3v8h-2.94v-8a4.16,4.16,0,0,0-1-3,3.42,3.42,0,0,0-2.63-1A3.47,3.47,0,0,0,190,9a4.12,4.12,0,0,0-1,3v8h-3V5.59h3V7.23a4.93,4.93,0,0,1,1.85-1.38,5.86,5.86,0,0,1,2.39-.49,6.38,6.38,0,0,1,3.07.73,5,5,0,0,1,2.08,2.11,4.8,4.8,0,0,1,2-2.07,6,6,0,0,1,3-.77A6.42,6.42,0,0,1,206.46,6.06Z"/><path d="M86.89,36a7.91,7.91,0,0,1,3.35,3.17,9.54,9.54,0,0,1,1.18,4.82,9.33,9.33,0,0,1-1.18,4.78,7.81,7.81,0,0,1-3.35,3.11,11.22,11.22,0,0,1-5.06,1.08h-5.9V34.85h5.9A11,11,0,0,1,86.89,36Zm-0.2,12.83a6.6,6.6,0,0,0,1.69-4.84A6.82,6.82,0,0,0,86.69,39a6.41,6.41,0,0,0-4.86-1.77H78.89V50.5h2.94A6.52,6.52,0,0,0,86.69,48.78Z"/><path d="M94.52,36.15a1.9,1.9,0,0,1,1.35-3.25,1.81,1.81,0,0,1,1.33.55,1.95,1.95,0,0,1,0,2.7,1.8,1.8,0,0,1-1.33.55A1.84,1.84,0,0,1,94.52,36.15Zm2.81,2.44V52.92h-3V38.59h3Z"/><path d="M105.92,39a5.12,5.12,0,0,1,2.56-.61v3.07h-0.75a3.61,3.61,0,0,0-2.64.88,4.23,4.23,0,0,0-.9,3.07v7.54h-3V38.59h3v2.08A4.65,4.65,0,0,1,105.92,39Z"/><path d="M124.24,46.86H113.29a4,4,0,0,0,1.27,2.76,4,4,0,0,0,2.81,1,3.47,3.47,0,0,0,3.38-2H124a6.45,6.45,0,0,1-2.35,3.24,6.9,6.9,0,0,1-4.23,1.26,7.32,7.32,0,0,1-3.68-.92,6.56,6.56,0,0,1-2.55-2.6,7.93,7.93,0,0,1-.92-3.89,8.12,8.12,0,0,1,.9-3.89,6.31,6.31,0,0,1,2.52-2.59,7.51,7.51,0,0,1,3.73-.91,7.3,7.3,0,0,1,3.61.88,6.25,6.25,0,0,1,2.47,2.48,7.48,7.48,0,0,1,.88,3.68A9.32,9.32,0,0,1,124.24,46.86Zm-3-2.39a3.37,3.37,0,0,0-1.17-2.63,4.19,4.19,0,0,0-2.83-1,3.81,3.81,0,0,0-2.63,1,4.07,4.07,0,0,0-1.3,2.64h7.93Z" style="fill:url(#Nueva_muestra_de_degradado_3)"/><path d="M127.16,41.85a6.38,6.38,0,0,1,2.48-2.59,7.94,7.94,0,0,1,7.94.32,6.09,6.09,0,0,1,2.3,3.52h-3.2a3.38,3.38,0,0,0-1.25-1.66,3.69,3.69,0,0,0-2.16-.6,3.59,3.59,0,0,0-2.9,1.29,5.44,5.44,0,0,0-1.08,3.6,5.5,5.5,0,0,0,1.08,3.61,3.57,3.57,0,0,0,2.9,1.3,3.29,3.29,0,0,0,3.41-2.26h3.2a6.4,6.4,0,0,1-2.34,3.47,6.9,6.9,0,0,1-4.26,1.29,7.1,7.1,0,0,1-3.64-.92,6.47,6.47,0,0,1-2.48-2.6A8.87,8.87,0,0,1,127.16,41.85Z" style="fill:url(#Nueva_muestra_de_degradado_3-2)"/><path d="M146.31,41v7.93a1.52,1.52,0,0,0,.38,1.16,1.87,1.87,0,0,0,1.29.35h1.82v2.47h-2.34a4.51,4.51,0,0,1-3.07-.94,3.86,3.86,0,0,1-1.07-3V41h-1.69V38.59h1.69V35h3v3.56h3.48V41h-3.48Z"/><path d="M78.89,1.85V19.92h-3V1.85h3Z" style="fill:url(#Nueva_muestra_de_degradado_3-3)"/><path d="M93.05,6.06a5,5,0,0,1,2.09,2.08,6.84,6.84,0,0,1,.75,3.33v8.45H93v-8a4.16,4.16,0,0,0-1-3,3.42,3.42,0,0,0-2.63-1,3.47,3.47,0,0,0-2.64,1,4.12,4.12,0,0,0-1,3v8h-3V5.59h3V7.23a4.91,4.91,0,0,1,1.86-1.38A6,6,0,0,1,90,5.36,6.42,6.42,0,0,1,93.05,6.06Z" style="fill:url(#Nueva_muestra_de_degradado_3-3)"/><path d="M101.84,19.54a5.32,5.32,0,0,1-2.12-1.66,4.15,4.15,0,0,1-.83-2.35H102a2.09,2.09,0,0,0,.87,1.52,3.16,3.16,0,0,0,2,.61,3.35,3.35,0,0,0,1.94-.48,1.45,1.45,0,0,0,.69-1.23,1.27,1.27,0,0,0-.77-1.2,14.36,14.36,0,0,0-2.43-.86,23.33,23.33,0,0,1-2.63-.86,4.6,4.6,0,0,1-1.75-1.27,3.34,3.34,0,0,1-.74-2.26A3.53,3.53,0,0,1,99.8,7.4a4.51,4.51,0,0,1,1.94-1.5,7.24,7.24,0,0,1,2.9-.55,6,6,0,0,1,3.94,1.23,4.44,4.44,0,0,1,1.6,3.37h-3a2.11,2.11,0,0,0-.78-1.53,2.92,2.92,0,0,0-1.9-.57,3.08,3.08,0,0,0-1.79.44,1.37,1.37,0,0,0-.62,1.17,1.27,1.27,0,0,0,.42,1,3,3,0,0,0,1,.61q0.6,0.22,1.77.56a19.23,19.23,0,0,1,2.56.84,4.77,4.77,0,0,1,1.73,1.26,3.34,3.34,0,0,1,.75,2.21,3.71,3.71,0,0,1-.68,2.18,4.48,4.48,0,0,1-1.91,1.51,7.12,7.12,0,0,1-2.9.55A7.22,7.22,0,0,1,101.84,19.54Z" style="fill:url(#Nueva_muestra_de_degradado_3-3)"/><path d="M117,8v7.93a1.52,1.52,0,0,0,.38,1.16,1.87,1.87,0,0,0,1.29.35h1.82v2.47h-2.34a4.51,4.51,0,0,1-3.07-.94,3.86,3.86,0,0,1-1.07-3V8h-1.69V5.59H114V2h3V5.59h3.48V8H117Z" style="fill:url(#Nueva_muestra_de_degradado_3-3)"/><path d="M123.13,8.87A6.54,6.54,0,0,1,129,5.36a6.25,6.25,0,0,1,3,.66,6,6,0,0,1,2,1.65V5.59h3V19.92h-3V17.79a5.89,5.89,0,0,1-2.05,1.69,6.65,6.65,0,0,1-6.34-.27,6.73,6.73,0,0,1-2.43-2.65,8.16,8.16,0,0,1-.9-3.86A7.93,7.93,0,0,1,123.13,8.87Zm10.22,1.3a4.29,4.29,0,0,0-1.6-1.66,4.19,4.19,0,0,0-2.13-.57,4.26,4.26,0,0,0-2.13.56,4.21,4.21,0,0,0-1.6,1.64,5.11,5.11,0,0,0-.61,2.56,5.33,5.33,0,0,0,.61,2.6A4.3,4.3,0,0,0,127.5,17a4.14,4.14,0,0,0,2.12.58,4.19,4.19,0,0,0,2.13-.57,4.27,4.27,0,0,0,1.6-1.68,5.27,5.27,0,0,0,.61-2.59A5.19,5.19,0,0,0,133.35,10.17Z" style="fill:url(#Nueva_muestra_de_degradado_3-3)"/><path d="M149.57,6a5.67,5.67,0,0,1,2,1.65V5.59h3V20.15a7.32,7.32,0,0,1-.83,3.52,6,6,0,0,1-2.41,2.43,7.56,7.56,0,0,1-3.76.88,8.15,8.15,0,0,1-4.84-1.36,5,5,0,0,1-2.18-3.71h2.94a3.19,3.19,0,0,0,1.44,1.81,4.89,4.89,0,0,0,2.64.69,4,4,0,0,0,2.9-1.09,4.27,4.27,0,0,0,1.1-3.17V17.76a6,6,0,0,1-2,1.7,6.1,6.1,0,0,1-2.92.69,6.41,6.41,0,0,1-3.42-.95,6.7,6.7,0,0,1-2.44-2.65,8.16,8.16,0,0,1-.9-3.86,7.93,7.93,0,0,1,.9-3.82,6.54,6.54,0,0,1,5.86-3.51A6.35,6.35,0,0,1,149.57,6Zm1.4,4.15a4.29,4.29,0,0,0-1.6-1.66,4.19,4.19,0,0,0-2.13-.57,4.26,4.26,0,0,0-2.13.56,4.21,4.21,0,0,0-1.6,1.64,5.11,5.11,0,0,0-.61,2.56,5.33,5.33,0,0,0,.61,2.6,4.3,4.3,0,0,0,1.61,1.7,4.14,4.14,0,0,0,2.12.58,4.19,4.19,0,0,0,2.13-.57,4.27,4.27,0,0,0,1.6-1.68,5.27,5.27,0,0,0,.61-2.59A5.19,5.19,0,0,0,151,10.17Z" style="fill:url(#Nueva_muestra_de_degradado_3-3)"/><path d="M163.17,6a5.12,5.12,0,0,1,2.56-.61V8.43H165a3.61,3.61,0,0,0-2.64.88,4.23,4.23,0,0,0-.9,3.07v7.54h-3V5.59h3V7.67A4.65,4.65,0,0,1,163.17,6Z" style="fill:url(#Nueva_muestra_de_degradado_3-3)"/><path d="M168.37,8.87a6.54,6.54,0,0,1,5.86-3.51,6.25,6.25,0,0,1,3,.66,6,6,0,0,1,2,1.65V5.59h3V19.92h-3V17.79a5.89,5.89,0,0,1-2.05,1.69,6.65,6.65,0,0,1-6.34-.27,6.73,6.73,0,0,1-2.43-2.65,8.16,8.16,0,0,1-.9-3.86A7.93,7.93,0,0,1,168.37,8.87Zm10.22,1.3A4.29,4.29,0,0,0,177,8.5a4.19,4.19,0,0,0-2.13-.57,4.26,4.26,0,0,0-2.13.56,4.21,4.21,0,0,0-1.6,1.64,5.11,5.11,0,0,0-.61,2.56,5.33,5.33,0,0,0,.61,2.6,4.3,4.3,0,0,0,1.61,1.7,4.14,4.14,0,0,0,2.12.58A4.19,4.19,0,0,0,177,17a4.27,4.27,0,0,0,1.6-1.68,5.27,5.27,0,0,0,.61-2.59A5.19,5.19,0,0,0,178.59,10.17Z" style="fill:url(#Nueva_muestra_de_degradado_3-3)"/><path d="M206.46,6.06a5.07,5.07,0,0,1,2.11,2.08,6.75,6.75,0,0,1,.77,3.33v8.45H206.4v-8a4.16,4.16,0,0,0-1-3,3.42,3.42,0,0,0-2.63-1,3.47,3.47,0,0,0-2.64,1,4.12,4.12,0,0,0-1,3v8h-2.94v-8a4.16,4.16,0,0,0-1-3,3.42,3.42,0,0,0-2.63-1A3.47,3.47,0,0,0,190,9a4.12,4.12,0,0,0-1,3v8h-3V5.59h3V7.23a4.93,4.93,0,0,1,1.85-1.38,5.86,5.86,0,0,1,2.39-.49,6.38,6.38,0,0,1,3.07.73,5,5,0,0,1,2.08,2.11,4.8,4.8,0,0,1,2-2.07,6,6,0,0,1,3-.77A6.42,6.42,0,0,1,206.46,6.06Z" style="fill:url(#Nueva_muestra_de_degradado_3-3)"/><path d="M86.89,36a7.91,7.91,0,0,1,3.35,3.17,9.54,9.54,0,0,1,1.18,4.82,9.33,9.33,0,0,1-1.18,4.78,7.81,7.81,0,0,1-3.35,3.11,11.22,11.22,0,0,1-5.06,1.08h-5.9V34.85h5.9A11,11,0,0,1,86.89,36Zm-0.2,12.83a6.6,6.6,0,0,0,1.69-4.84A6.82,6.82,0,0,0,86.69,39a6.41,6.41,0,0,0-4.86-1.77H78.89V50.5h2.94A6.52,6.52,0,0,0,86.69,48.78Z" style="fill:url(#Nueva_muestra_de_degradado_3-3)"/><path d="M94.52,36.15a1.9,1.9,0,0,1,1.35-3.25,1.81,1.81,0,0,1,1.33.55,1.95,1.95,0,0,1,0,2.7,1.8,1.8,0,0,1-1.33.55A1.84,1.84,0,0,1,94.52,36.15Zm2.81,2.44V52.92h-3V38.59h3Z" style="fill:url(#Nueva_muestra_de_degradado_3-3)"/><path d="M105.92,39a5.12,5.12,0,0,1,2.56-.61v3.07h-0.75a3.61,3.61,0,0,0-2.64.88,4.23,4.23,0,0,0-.9,3.07v7.54h-3V38.59h3v2.08A4.65,4.65,0,0,1,105.92,39Z" style="fill:url(#Nueva_muestra_de_degradado_3-3)"/><path d="M124.24,46.86H113.29a4,4,0,0,0,1.27,2.76,4,4,0,0,0,2.81,1,3.47,3.47,0,0,0,3.38-2H124a6.45,6.45,0,0,1-2.35,3.24,6.9,6.9,0,0,1-4.23,1.26,7.32,7.32,0,0,1-3.68-.92,6.56,6.56,0,0,1-2.55-2.6,7.93,7.93,0,0,1-.92-3.89,8.12,8.12,0,0,1,.9-3.89,6.31,6.31,0,0,1,2.52-2.59,7.51,7.51,0,0,1,3.73-.91,7.3,7.3,0,0,1,3.61.88,6.25,6.25,0,0,1,2.47,2.48,7.48,7.48,0,0,1,.88,3.68A9.32,9.32,0,0,1,124.24,46.86Zm-3-2.39a3.37,3.37,0,0,0-1.17-2.63,4.19,4.19,0,0,0-2.83-1,3.81,3.81,0,0,0-2.63,1,4.07,4.07,0,0,0-1.3,2.64h7.93Z" style="fill:url(#Nueva_muestra_de_degradado_3-3)"/><path d="M127.16,41.85a6.38,6.38,0,0,1,2.48-2.59,7.94,7.94,0,0,1,7.94.32,6.09,6.09,0,0,1,2.3,3.52h-3.2a3.38,3.38,0,0,0-1.25-1.66,3.69,3.69,0,0,0-2.16-.6,3.59,3.59,0,0,0-2.9,1.29,5.44,5.44,0,0,0-1.08,3.6,5.5,5.5,0,0,0,1.08,3.61,3.57,3.57,0,0,0,2.9,1.3,3.29,3.29,0,0,0,3.41-2.26h3.2a6.4,6.4,0,0,1-2.34,3.47,6.9,6.9,0,0,1-4.26,1.29,7.1,7.1,0,0,1-3.64-.92,6.47,6.47,0,0,1-2.48-2.6A8.87,8.87,0,0,1,127.16,41.85Z" style="fill:url(#Nueva_muestra_de_degradado_3-3)"/><path d="M146.31,41v7.93a1.52,1.52,0,0,0,.38,1.16,1.87,1.87,0,0,0,1.29.35h1.82v2.47h-2.34a4.51,4.51,0,0,1-3.07-.94,3.86,3.86,0,0,1-1.07-3V41h-1.69V38.59h1.69V35h3v3.56h3.48V41h-3.48Z" style="fill:url(#Nueva_muestra_de_degradado_3-3)"/><path d="M39.53,0H15.47A15.46,15.46,0,0,0,0,15.47V39.53A15.46,15.46,0,0,0,15.47,55H39.53A15.47,15.47,0,0,0,55,39.53V15.47A15.47,15.47,0,0,0,39.53,0ZM50,39.46a11.11,11.11,0,0,1-2.8,7.26C43.84,50.2,40,50.2,27.5,50.2s-16.33,0-19.72-3.47A11.06,11.06,0,0,1,5,39.46c-0.18-3.84-.27-10.38-0.22-12s0-8.12.22-12a11.06,11.06,0,0,1,2.8-7.26C11.16,4.8,15,4.8,27.5,4.8s16.34,0,19.73,3.47A11.1,11.1,0,0,1,50,15.54c0.18,3.84.27,10.38,0.22,12S50.2,35.62,50,39.46ZM27.5,13.3A14.2,14.2,0,1,0,41.7,27.5,14.19,14.19,0,0,0,27.5,13.3Zm0,23.41a9.21,9.21,0,1,1,9.21-9.21A9.21,9.21,0,0,1,27.5,36.71Zm17.93-24a3.31,3.31,0,1,1-3.31-3.31A3.31,3.31,0,0,1,45.43,12.73Z" style="fill:url(#Nueva_muestra_de_degradado_3-18)"/></svg>