<svg id="Layer_1" data-name="Layer 1" xmlns="http://www.w3.org/2000/svg" xmlns:xlink="http://www.w3.org/1999/xlink" width="216.51" height="59.31" viewBox="0 0 216.51 59.31"><defs><radialGradient id="Nueva_muestra_de_degradado_1" cx="79.17" cy="25.31" r="126" gradientUnits="userSpaceOnUse"><stop offset="0" stop-color="#09f"/><stop offset="0.61" stop-color="#a033ff"/><stop offset="0.93" stop-color="#ff5280"/><stop offset="1" stop-color="#ff7061"/></radialGradient><radialGradient id="Nueva_muestra_de_degradado_1-18" cx="200.06" cy="471.7" r="0.07" gradientTransform="matrix(800, 0, 0, -800, -160034.74, 377412.9)" xlink:href="#Nueva_muestra_de_degradado_1"/></defs><title>messenger btn</title><path d="M86.56,1.17V3.59H78.89V8.92h6v2.42h-6v7.9h-3V1.17H86.56Z"/><path d="M89.23,8.19a6.54,6.54,0,0,1,5.86-3.51,6.25,6.25,0,0,1,3,.66,6,6,0,0,1,2,1.65V4.91h3V19.24h-3V17.11A5.89,5.89,0,0,1,98,18.8a6.65,6.65,0,0,1-6.34-.27,6.73,6.73,0,0,1-2.43-2.65,8.16,8.16,0,0,1-.9-3.86A7.93,7.93,0,0,1,89.23,8.19Zm10.22,1.3a4.29,4.29,0,0,0-1.6-1.66,4.19,4.19,0,0,0-2.13-.57,4.26,4.26,0,0,0-2.13.56A4.22,4.22,0,0,0,92,9.45,5.12,5.12,0,0,0,91.37,12a5.34,5.34,0,0,0,.61,2.6,4.31,4.31,0,0,0,1.61,1.7,4.14,4.14,0,0,0,2.12.58,4.19,4.19,0,0,0,2.13-.57,4.26,4.26,0,0,0,1.6-1.68,5.26,5.26,0,0,0,.61-2.59A5.19,5.19,0,0,0,99.45,9.49Z"/><path d="M106.86,8.18a6.38,6.38,0,0,1,2.48-2.59,7.94,7.94,0,0,1,7.94.32,6.08,6.08,0,0,1,2.3,3.52h-3.2a3.39,3.39,0,0,0-1.25-1.66,3.69,3.69,0,0,0-2.16-.6,3.59,3.59,0,0,0-2.9,1.29,5.45,5.45,0,0,0-1.08,3.6,5.5,5.5,0,0,0,1.08,3.61A3.57,3.57,0,0,0,113,17a3.29,3.29,0,0,0,3.41-2.26h3.2a6.4,6.4,0,0,1-2.34,3.47A6.9,6.9,0,0,1,113,19.47a7.1,7.1,0,0,1-3.64-.92,6.47,6.47,0,0,1-2.48-2.6,8.12,8.12,0,0,1-.9-3.89A8.12,8.12,0,0,1,106.86,8.18Z"/><path d="M135.57,13.18H124.63a4,4,0,0,0,1.27,2.76,4,4,0,0,0,2.81,1,3.47,3.47,0,0,0,3.38-2h3.2a6.45,6.45,0,0,1-2.35,3.24,6.9,6.9,0,0,1-4.22,1.26,7.32,7.32,0,0,1-3.68-.92,6.56,6.56,0,0,1-2.55-2.6,7.93,7.93,0,0,1-.92-3.89,8.12,8.12,0,0,1,.9-3.89A6.31,6.31,0,0,1,125,5.59a7.51,7.51,0,0,1,3.73-.91,7.3,7.3,0,0,1,3.61.88A6.25,6.25,0,0,1,134.79,8a7.48,7.48,0,0,1,.88,3.68A9.39,9.39,0,0,1,135.57,13.18Zm-3-2.39a3.37,3.37,0,0,0-1.17-2.63,4.19,4.19,0,0,0-2.83-1,3.81,3.81,0,0,0-2.63,1,4.07,4.07,0,0,0-1.3,2.64h7.93Z"/><path d="M143.62,5.34a6.4,6.4,0,0,1,2.92-.66,6.6,6.6,0,0,1,3.43.91,6.41,6.41,0,0,1,2.42,2.59,8.11,8.11,0,0,1,.88,3.83,8.26,8.26,0,0,1-.88,3.86A6.62,6.62,0,0,1,150,18.53a6.81,6.81,0,0,1-6.37.3,5.66,5.66,0,0,1-2-1.66v2.08h-3V0h3V7A5.62,5.62,0,0,1,143.62,5.34Zm6,4.11A4.19,4.19,0,0,0,148,7.81a4.33,4.33,0,0,0-2.14-.56,4.21,4.21,0,0,0-2.12.57,4.26,4.26,0,0,0-1.61,1.66,5.19,5.19,0,0,0-.61,2.57,5.26,5.26,0,0,0,.61,2.59,4.23,4.23,0,0,0,3.73,2.25,4.18,4.18,0,0,0,2.14-.58,4.31,4.31,0,0,0,1.61-1.7,5.34,5.34,0,0,0,.61-2.6A5.12,5.12,0,0,0,149.65,9.45Z"/><path d="M158.77,18.55a6.62,6.62,0,0,1-2.57-2.6,7.84,7.84,0,0,1-.94-3.89,7.69,7.69,0,0,1,1-3.87,6.63,6.63,0,0,1,2.63-2.6,8,8,0,0,1,7.44,0,6.65,6.65,0,0,1,2.63,2.6,7.69,7.69,0,0,1,1,3.87,7.53,7.53,0,0,1-1,3.87,6.84,6.84,0,0,1-2.69,2.61,7.76,7.76,0,0,1-3.76.92A7.34,7.34,0,0,1,158.77,18.55Zm5.81-2.2a4.16,4.16,0,0,0,1.63-1.64,5.27,5.27,0,0,0,.62-2.65,5.38,5.38,0,0,0-.6-2.64,4,4,0,0,0-1.59-1.62,4.34,4.34,0,0,0-2.13-.55,4.26,4.26,0,0,0-2.12.55,3.89,3.89,0,0,0-1.55,1.62,5.57,5.57,0,0,0-.57,2.64,5,5,0,0,0,1.18,3.57,3.91,3.91,0,0,0,3,1.26A4.41,4.41,0,0,0,164.58,16.35Z"/><path d="M175.35,18.55a6.63,6.63,0,0,1-2.57-2.6,7.84,7.84,0,0,1-.94-3.89,7.69,7.69,0,0,1,1-3.87,6.64,6.64,0,0,1,2.63-2.6,8.05,8.05,0,0,1,7.44,0,6.65,6.65,0,0,1,2.63,2.6,7.7,7.7,0,0,1,1,3.87,7.54,7.54,0,0,1-1,3.87,6.84,6.84,0,0,1-2.69,2.61,7.76,7.76,0,0,1-3.76.92A7.34,7.34,0,0,1,175.35,18.55Zm5.81-2.2a4.16,4.16,0,0,0,1.63-1.64,5.27,5.27,0,0,0,.62-2.65,5.38,5.38,0,0,0-.6-2.64,4,4,0,0,0-1.59-1.62,4.34,4.34,0,0,0-2.13-.55A4.26,4.26,0,0,0,177,7.8a3.9,3.9,0,0,0-1.55,1.62,5.57,5.57,0,0,0-.57,2.64A5,5,0,0,0,176,15.64a3.91,3.91,0,0,0,3,1.26A4.41,4.41,0,0,0,181.16,16.35Z"/><path d="M195.06,12.09l6.6,7.15h-4l-5.3-6.16v6.16h-3V0h3V11.18l5.2-6.27h4.11Z"/><path d="M95,34.17V52.24H92V39.86L86.49,52.24H84.43L78.89,39.86V52.24h-3V34.17h3.2l6.34,14.17,6.32-14.17H95Z"/><path d="M111.89,46.18H100.94a4,4,0,0,0,1.27,2.76A4,4,0,0,0,105,50a3.47,3.47,0,0,0,3.38-2h3.2a6.46,6.46,0,0,1-2.35,3.24A6.9,6.9,0,0,1,105,52.47a7.32,7.32,0,0,1-3.68-.92A6.57,6.57,0,0,1,98.8,49a7.93,7.93,0,0,1-.92-3.89,8.12,8.12,0,0,1,.9-3.89,6.31,6.31,0,0,1,2.52-2.59,7.51,7.51,0,0,1,3.73-.91,7.3,7.3,0,0,1,3.61.88A6.24,6.24,0,0,1,111.11,41a7.47,7.47,0,0,1,.88,3.68A9.26,9.26,0,0,1,111.89,46.18Zm-3-2.39a3.37,3.37,0,0,0-1.17-2.63,4.18,4.18,0,0,0-2.83-1,3.81,3.81,0,0,0-2.63,1,4.08,4.08,0,0,0-1.3,2.64h7.93Z"/><path d="M117.08,51.86A5.31,5.31,0,0,1,115,50.2a4.14,4.14,0,0,1-.83-2.35h3.07a2.1,2.1,0,0,0,.87,1.52,3.16,3.16,0,0,0,2,.61A3.35,3.35,0,0,0,122,49.5a1.45,1.45,0,0,0,.69-1.23,1.27,1.27,0,0,0-.77-1.2,14.37,14.37,0,0,0-2.43-.86,23.4,23.4,0,0,1-2.63-.86,4.6,4.6,0,0,1-1.75-1.27,3.34,3.34,0,0,1-.74-2.26,3.53,3.53,0,0,1,.68-2.09,4.5,4.5,0,0,1,1.94-1.5,7.24,7.24,0,0,1,2.9-.55,6,6,0,0,1,3.94,1.23,4.44,4.44,0,0,1,1.6,3.37h-3a2.12,2.12,0,0,0-.78-1.53,2.92,2.92,0,0,0-1.9-.57,3.08,3.08,0,0,0-1.79.44,1.37,1.37,0,0,0-.62,1.17,1.27,1.27,0,0,0,.42,1,3,3,0,0,0,1,.61q0.6,0.22,1.77.56a19.19,19.19,0,0,1,2.56.84A4.77,4.77,0,0,1,124.84,46a3.34,3.34,0,0,1,.75,2.21,3.71,3.71,0,0,1-.68,2.18A4.49,4.49,0,0,1,123,51.93a7.13,7.13,0,0,1-2.9.55A7.21,7.21,0,0,1,117.08,51.86Z"/><path d="M131,51.86a5.31,5.31,0,0,1-2.12-1.66,4.14,4.14,0,0,1-.83-2.35h3.07a2.1,2.1,0,0,0,.87,1.52,3.16,3.16,0,0,0,2,.61,3.35,3.35,0,0,0,1.94-.48,1.45,1.45,0,0,0,.69-1.23,1.27,1.27,0,0,0-.77-1.2,14.37,14.37,0,0,0-2.43-.86,23.4,23.4,0,0,1-2.63-.86A4.6,4.6,0,0,1,129,44.08a3.34,3.34,0,0,1-.74-2.26,3.53,3.53,0,0,1,.68-2.09,4.5,4.5,0,0,1,1.94-1.5,7.24,7.24,0,0,1,2.9-.55,6,6,0,0,1,3.94,1.23,4.44,4.44,0,0,1,1.6,3.37h-3a2.12,2.12,0,0,0-.78-1.53,2.92,2.92,0,0,0-1.9-.57,3.08,3.08,0,0,0-1.79.44,1.37,1.37,0,0,0-.62,1.17,1.27,1.27,0,0,0,.42,1,3,3,0,0,0,1,.61q0.6,0.22,1.77.56a19.19,19.19,0,0,1,2.56.84A4.77,4.77,0,0,1,138.72,46a3.34,3.34,0,0,1,.75,2.21,3.71,3.71,0,0,1-.68,2.18,4.49,4.49,0,0,1-1.91,1.51,7.13,7.13,0,0,1-2.9.55A7.21,7.21,0,0,1,131,51.86Z"/><path d="M155.7,46.18H144.75A4,4,0,0,0,146,48.94a4,4,0,0,0,2.81,1,3.47,3.47,0,0,0,3.38-2h3.2a6.46,6.46,0,0,1-2.35,3.24,6.9,6.9,0,0,1-4.23,1.26,7.32,7.32,0,0,1-3.68-.92,6.57,6.57,0,0,1-2.55-2.6,7.93,7.93,0,0,1-.92-3.89,8.12,8.12,0,0,1,.9-3.89,6.31,6.31,0,0,1,2.52-2.59,7.51,7.51,0,0,1,3.73-.91,7.3,7.3,0,0,1,3.61.88A6.24,6.24,0,0,1,154.92,41a7.47,7.47,0,0,1,.88,3.68A9.26,9.26,0,0,1,155.7,46.18Zm-3-2.39a3.37,3.37,0,0,0-1.17-2.63,4.18,4.18,0,0,0-2.83-1,3.81,3.81,0,0,0-2.63,1,4.08,4.08,0,0,0-1.3,2.64h7.93Z"/><path d="M169,38.38a5,5,0,0,1,2.09,2.08,6.84,6.84,0,0,1,.75,3.33v8.45h-2.94v-8a4.16,4.16,0,0,0-1-3,3.42,3.42,0,0,0-2.63-1,3.46,3.46,0,0,0-2.64,1,4.12,4.12,0,0,0-1,3v8h-3V37.91h3v1.64a4.92,4.92,0,0,1,1.86-1.38,6,6,0,0,1,2.41-.49A6.42,6.42,0,0,1,169,38.38Z"/><path d="M184.31,38.34a5.67,5.67,0,0,1,2,1.65V37.91h3V52.47a7.33,7.33,0,0,1-.83,3.52,6,6,0,0,1-2.41,2.43,7.56,7.56,0,0,1-3.76.88,8.15,8.15,0,0,1-4.84-1.36,5,5,0,0,1-2.18-3.71h2.94A3.19,3.19,0,0,0,179.68,56a4.89,4.89,0,0,0,2.64.69,4,4,0,0,0,2.9-1.09,4.27,4.27,0,0,0,1.11-3.17V50.08a6.16,6.16,0,0,1-5,2.39,6.41,6.41,0,0,1-3.42-.95,6.69,6.69,0,0,1-2.44-2.65,8.16,8.16,0,0,1-.9-3.86,7.93,7.93,0,0,1,.9-3.82,6.54,6.54,0,0,1,5.86-3.51A6.35,6.35,0,0,1,184.31,38.34Zm1.4,4.15a4.29,4.29,0,0,0-1.6-1.66,4.19,4.19,0,0,0-2.13-.57,4.26,4.26,0,0,0-2.13.56,4.22,4.22,0,0,0-1.6,1.64,5.12,5.12,0,0,0-.61,2.56,5.34,5.34,0,0,0,.61,2.6,4.31,4.31,0,0,0,1.61,1.7,4.14,4.14,0,0,0,2.12.58,4.19,4.19,0,0,0,2.13-.57,4.26,4.26,0,0,0,1.6-1.68,5.26,5.26,0,0,0,.61-2.59A5.19,5.19,0,0,0,185.71,42.49Z"/><path d="M206.24,46.18H195.3a4,4,0,0,0,1.27,2.76,4,4,0,0,0,2.81,1,3.47,3.47,0,0,0,3.38-2H206a6.45,6.45,0,0,1-2.35,3.24,6.9,6.9,0,0,1-4.22,1.26,7.32,7.32,0,0,1-3.68-.92,6.56,6.56,0,0,1-2.55-2.6,7.93,7.93,0,0,1-.92-3.89,8.12,8.12,0,0,1,.9-3.89,6.31,6.31,0,0,1,2.52-2.59,7.51,7.51,0,0,1,3.73-.91,7.3,7.3,0,0,1,3.61.88A6.25,6.25,0,0,1,205.46,41a7.48,7.48,0,0,1,.88,3.68A9.39,9.39,0,0,1,206.24,46.18Zm-3-2.39a3.37,3.37,0,0,0-1.17-2.63,4.19,4.19,0,0,0-2.83-1,3.81,3.81,0,0,0-2.63,1,4.07,4.07,0,0,0-1.3,2.64h7.93Z"/><path d="M213.95,38.29a5.12,5.12,0,0,1,2.56-.61v3.07h-0.75a3.61,3.61,0,0,0-2.64.88,4.23,4.23,0,0,0-.9,3.07v7.54h-3V37.91h3V40A4.65,4.65,0,0,1,213.95,38.29Z"/><path d="M86.56,1.17V3.59H78.89V8.92h6v2.42h-6v7.9h-3V1.17H86.56Z" style="fill:url(#Nueva_muestra_de_degradado_1)"/><path d="M89.23,8.19a6.54,6.54,0,0,1,5.86-3.51,6.25,6.25,0,0,1,3,.66,6,6,0,0,1,2,1.65V4.91h3V19.24h-3V17.11A5.89,5.89,0,0,1,98,18.8a6.65,6.65,0,0,1-6.34-.27,6.73,6.73,0,0,1-2.43-2.65,8.16,8.16,0,0,1-.9-3.86A7.93,7.93,0,0,1,89.23,8.19Zm10.22,1.3a4.29,4.29,0,0,0-1.6-1.66,4.19,4.19,0,0,0-2.13-.57,4.26,4.26,0,0,0-2.13.56A4.22,4.22,0,0,0,92,9.45,5.12,5.12,0,0,0,91.37,12a5.34,5.34,0,0,0,.61,2.6,4.31,4.31,0,0,0,1.61,1.7,4.14,4.14,0,0,0,2.12.58,4.19,4.19,0,0,0,2.13-.57,4.26,4.26,0,0,0,1.6-1.68,5.26,5.26,0,0,0,.61-2.59A5.19,5.19,0,0,0,99.45,9.49Z" style="fill:url(#Nueva_muestra_de_degradado_1)"/><path d="M106.86,8.18a6.38,6.38,0,0,1,2.48-2.59,7.94,7.94,0,0,1,7.94.32,6.08,6.08,0,0,1,2.3,3.52h-3.2a3.39,3.39,0,0,0-1.25-1.66,3.69,3.69,0,0,0-2.16-.6,3.59,3.59,0,0,0-2.9,1.29,5.45,5.45,0,0,0-1.08,3.6,5.5,5.5,0,0,0,1.08,3.61A3.57,3.57,0,0,0,113,17a3.29,3.29,0,0,0,3.41-2.26h3.2a6.4,6.4,0,0,1-2.34,3.47A6.9,6.9,0,0,1,113,19.47a7.1,7.1,0,0,1-3.64-.92,6.47,6.47,0,0,1-2.48-2.6,8.12,8.12,0,0,1-.9-3.89A8.12,8.12,0,0,1,106.86,8.18Z" style="fill:url(#Nueva_muestra_de_degradado_1)"/><path d="M135.57,13.18H124.63a4,4,0,0,0,1.27,2.76,4,4,0,0,0,2.81,1,3.47,3.47,0,0,0,3.38-2h3.2a6.45,6.45,0,0,1-2.35,3.24,6.9,6.9,0,0,1-4.22,1.26,7.32,7.32,0,0,1-3.68-.92,6.56,6.56,0,0,1-2.55-2.6,7.93,7.93,0,0,1-.92-3.89,8.12,8.12,0,0,1,.9-3.89A6.31,6.31,0,0,1,125,5.59a7.51,7.51,0,0,1,3.73-.91,7.3,7.3,0,0,1,3.61.88A6.25,6.25,0,0,1,134.79,8a7.48,7.48,0,0,1,.88,3.68A9.39,9.39,0,0,1,135.57,13.18Zm-3-2.39a3.37,3.37,0,0,0-1.17-2.63,4.19,4.19,0,0,0-2.83-1,3.81,3.81,0,0,0-2.63,1,4.07,4.07,0,0,0-1.3,2.64h7.93Z" style="fill:url(#Nueva_muestra_de_degradado_1)"/><path d="M143.62,5.34a6.4,6.4,0,0,1,2.92-.66,6.6,6.6,0,0,1,3.43.91,6.41,6.41,0,0,1,2.42,2.59,8.11,8.11,0,0,1,.88,3.83,8.26,8.26,0,0,1-.88,3.86A6.62,6.62,0,0,1,150,18.53a6.81,6.81,0,0,1-6.37.3,5.66,5.66,0,0,1-2-1.66v2.08h-3V0h3V7A5.62,5.62,0,0,1,143.62,5.34Zm6,4.11A4.19,4.19,0,0,0,148,7.81a4.33,4.33,0,0,0-2.14-.56,4.21,4.21,0,0,0-2.12.57,4.26,4.26,0,0,0-1.61,1.66,5.19,5.19,0,0,0-.61,2.57,5.26,5.26,0,0,0,.61,2.59,4.23,4.23,0,0,0,3.73,2.25,4.18,4.18,0,0,0,2.14-.58,4.31,4.31,0,0,0,1.61-1.7,5.34,5.34,0,0,0,.61-2.6A5.12,5.12,0,0,0,149.65,9.45Z" style="fill:url(#Nueva_muestra_de_degradado_1)"/><path d="M158.77,18.55a6.62,6.62,0,0,1-2.57-2.6,7.84,7.84,0,0,1-.94-3.89,7.69,7.69,0,0,1,1-3.87,6.63,6.63,0,0,1,2.63-2.6,8,8,0,0,1,7.44,0,6.65,6.65,0,0,1,2.63,2.6,7.69,7.69,0,0,1,1,3.87,7.53,7.53,0,0,1-1,3.87,6.84,6.84,0,0,1-2.69,2.61,7.76,7.76,0,0,1-3.76.92A7.34,7.34,0,0,1,158.77,18.55Zm5.81-2.2a4.16,4.16,0,0,0,1.63-1.64,5.27,5.27,0,0,0,.62-2.65,5.38,5.38,0,0,0-.6-2.64,4,4,0,0,0-1.59-1.62,4.34,4.34,0,0,0-2.13-.55,4.26,4.26,0,0,0-2.12.55,3.89,3.89,0,0,0-1.55,1.62,5.57,5.57,0,0,0-.57,2.64,5,5,0,0,0,1.18,3.57,3.91,3.91,0,0,0,3,1.26A4.41,4.41,0,0,0,164.58,16.35Z" style="fill:url(#Nueva_muestra_de_degradado_1)"/><path d="M175.35,18.55a6.63,6.63,0,0,1-2.57-2.6,7.84,7.84,0,0,1-.94-3.89,7.69,7.69,0,0,1,1-3.87,6.64,6.64,0,0,1,2.63-2.6,8.05,8.05,0,0,1,7.44,0,6.65,6.65,0,0,1,2.63,2.6,7.7,7.7,0,0,1,1,3.87,7.54,7.54,0,0,1-1,3.87,6.84,6.84,0,0,1-2.69,2.61,7.76,7.76,0,0,1-3.76.92A7.34,7.34,0,0,1,175.35,18.55Zm5.81-2.2a4.16,4.16,0,0,0,1.63-1.64,5.27,5.27,0,0,0,.62-2.65,5.38,5.38,0,0,0-.6-2.64,4,4,0,0,0-1.59-1.62,4.34,4.34,0,0,0-2.13-.55A4.26,4.26,0,0,0,177,7.8a3.9,3.9,0,0,0-1.55,1.62,5.57,5.57,0,0,0-.57,2.64A5,5,0,0,0,176,15.64a3.91,3.91,0,0,0,3,1.26A4.41,4.41,0,0,0,181.16,16.35Z" style="fill:url(#Nueva_muestra_de_degradado_1)"/><path d="M195.06,12.09l6.6,7.15h-4l-5.3-6.16v6.16h-3V0h3V11.18l5.2-6.27h4.11Z" style="fill:url(#Nueva_muestra_de_degradado_1)"/><path d="M95,34.17V52.24H92V39.86L86.49,52.24H84.43L78.89,39.86V52.24h-3V34.17h3.2l6.34,14.17,6.32-14.17H95Z" style="fill:url(#Nueva_muestra_de_degradado_1)"/><path d="M111.89,46.18H100.94a4,4,0,0,0,1.27,2.76A4,4,0,0,0,105,50a3.47,3.47,0,0,0,3.38-2h3.2a6.46,6.46,0,0,1-2.35,3.24A6.9,6.9,0,0,1,105,52.47a7.32,7.32,0,0,1-3.68-.92A6.57,6.57,0,0,1,98.8,49a7.93,7.93,0,0,1-.92-3.89,8.12,8.12,0,0,1,.9-3.89,6.31,6.31,0,0,1,2.52-2.59,7.51,7.51,0,0,1,3.73-.91,7.3,7.3,0,0,1,3.61.88A6.24,6.24,0,0,1,111.11,41a7.47,7.47,0,0,1,.88,3.68A9.26,9.26,0,0,1,111.89,46.18Zm-3-2.39a3.37,3.37,0,0,0-1.17-2.63,4.18,4.18,0,0,0-2.83-1,3.81,3.81,0,0,0-2.63,1,4.08,4.08,0,0,0-1.3,2.64h7.93Z" style="fill:url(#Nueva_muestra_de_degradado_1)"/><path d="M117.08,51.86A5.31,5.31,0,0,1,115,50.2a4.14,4.14,0,0,1-.83-2.35h3.07a2.1,2.1,0,0,0,.87,1.52,3.16,3.16,0,0,0,2,.61A3.35,3.35,0,0,0,122,49.5a1.45,1.45,0,0,0,.69-1.23,1.27,1.27,0,0,0-.77-1.2,14.37,14.37,0,0,0-2.43-.86,23.4,23.4,0,0,1-2.63-.86,4.6,4.6,0,0,1-1.75-1.27,3.34,3.34,0,0,1-.74-2.26,3.53,3.53,0,0,1,.68-2.09,4.5,4.5,0,0,1,1.94-1.5,7.24,7.24,0,0,1,2.9-.55,6,6,0,0,1,3.94,1.23,4.44,4.44,0,0,1,1.6,3.37h-3a2.12,2.12,0,0,0-.78-1.53,2.92,2.92,0,0,0-1.9-.57,3.08,3.08,0,0,0-1.79.44,1.37,1.37,0,0,0-.62,1.17,1.27,1.27,0,0,0,.42,1,3,3,0,0,0,1,.61q0.6,0.22,1.77.56a19.19,19.19,0,0,1,2.56.84A4.77,4.77,0,0,1,124.84,46a3.34,3.34,0,0,1,.75,2.21,3.71,3.71,0,0,1-.68,2.18A4.49,4.49,0,0,1,123,51.93a7.13,7.13,0,0,1-2.9.55A7.21,7.21,0,0,1,117.08,51.86Z" style="fill:url(#Nueva_muestra_de_degradado_1)"/><path d="M131,51.86a5.31,5.31,0,0,1-2.12-1.66,4.14,4.14,0,0,1-.83-2.35h3.07a2.1,2.1,0,0,0,.87,1.52,3.16,3.16,0,0,0,2,.61,3.35,3.35,0,0,0,1.94-.48,1.45,1.45,0,0,0,.69-1.23,1.27,1.27,0,0,0-.77-1.2,14.37,14.37,0,0,0-2.43-.86,23.4,23.4,0,0,1-2.63-.86A4.6,4.6,0,0,1,129,44.08a3.34,3.34,0,0,1-.74-2.26,3.53,3.53,0,0,1,.68-2.09,4.5,4.5,0,0,1,1.94-1.5,7.24,7.24,0,0,1,2.9-.55,6,6,0,0,1,3.94,1.23,4.44,4.44,0,0,1,1.6,3.37h-3a2.12,2.12,0,0,0-.78-1.53,2.92,2.92,0,0,0-1.9-.57,3.08,3.08,0,0,0-1.79.44,1.37,1.37,0,0,0-.62,1.17,1.27,1.27,0,0,0,.42,1,3,3,0,0,0,1,.61q0.6,0.22,1.77.56a19.19,19.19,0,0,1,2.56.84A4.77,4.77,0,0,1,138.72,46a3.34,3.34,0,0,1,.75,2.21,3.71,3.71,0,0,1-.68,2.18,4.49,4.49,0,0,1-1.91,1.51,7.13,7.13,0,0,1-2.9.55A7.21,7.21,0,0,1,131,51.86Z" style="fill:url(#Nueva_muestra_de_degradado_1)"/><path d="M155.7,46.18H144.75A4,4,0,0,0,146,48.94a4,4,0,0,0,2.81,1,3.47,3.47,0,0,0,3.38-2h3.2a6.46,6.46,0,0,1-2.35,3.24,6.9,6.9,0,0,1-4.23,1.26,7.32,7.32,0,0,1-3.68-.92,6.57,6.57,0,0,1-2.55-2.6,7.93,7.93,0,0,1-.92-3.89,8.12,8.12,0,0,1,.9-3.89,6.31,6.31,0,0,1,2.52-2.59,7.51,7.51,0,0,1,3.73-.91,7.3,7.3,0,0,1,3.61.88A6.24,6.24,0,0,1,154.92,41a7.47,7.47,0,0,1,.88,3.68A9.26,9.26,0,0,1,155.7,46.18Zm-3-2.39a3.37,3.37,0,0,0-1.17-2.63,4.18,4.18,0,0,0-2.83-1,3.81,3.81,0,0,0-2.63,1,4.08,4.08,0,0,0-1.3,2.64h7.93Z" style="fill:url(#Nueva_muestra_de_degradado_1)"/><path d="M169,38.38a5,5,0,0,1,2.09,2.08,6.84,6.84,0,0,1,.75,3.33v8.45h-2.94v-8a4.16,4.16,0,0,0-1-3,3.42,3.42,0,0,0-2.63-1,3.46,3.46,0,0,0-2.64,1,4.12,4.12,0,0,0-1,3v8h-3V37.91h3v1.64a4.92,4.92,0,0,1,1.86-1.38,6,6,0,0,1,2.41-.49A6.42,6.42,0,0,1,169,38.38Z" style="fill:url(#Nueva_muestra_de_degradado_1)"/><path d="M184.31,38.34a5.67,5.67,0,0,1,2,1.65V37.91h3V52.47a7.33,7.33,0,0,1-.83,3.52,6,6,0,0,1-2.41,2.43,7.56,7.56,0,0,1-3.76.88,8.15,8.15,0,0,1-4.84-1.36,5,5,0,0,1-2.18-3.71h2.94A3.19,3.19,0,0,0,179.68,56a4.89,4.89,0,0,0,2.64.69,4,4,0,0,0,2.9-1.09,4.27,4.27,0,0,0,1.11-3.17V50.08a6.16,6.16,0,0,1-5,2.39,6.41,6.41,0,0,1-3.42-.95,6.69,6.69,0,0,1-2.44-2.65,8.16,8.16,0,0,1-.9-3.86,7.93,7.93,0,0,1,.9-3.82,6.54,6.54,0,0,1,5.86-3.51A6.35,6.35,0,0,1,184.31,38.34Zm1.4,4.15a4.29,4.29,0,0,0-1.6-1.66,4.19,4.19,0,0,0-2.13-.57,4.26,4.26,0,0,0-2.13.56,4.22,4.22,0,0,0-1.6,1.64,5.12,5.12,0,0,0-.61,2.56,5.34,5.34,0,0,0,.61,2.6,4.31,4.31,0,0,0,1.61,1.7,4.14,4.14,0,0,0,2.12.58,4.19,4.19,0,0,0,2.13-.57,4.26,4.26,0,0,0,1.6-1.68,5.26,5.26,0,0,0,.61-2.59A5.19,5.19,0,0,0,185.71,42.49Z" style="fill:url(#Nueva_muestra_de_degradado_1)"/><path d="M206.24,46.18H195.3a4,4,0,0,0,1.27,2.76,4,4,0,0,0,2.81,1,3.47,3.47,0,0,0,3.38-2H206a6.45,6.45,0,0,1-2.35,3.24,6.9,6.9,0,0,1-4.22,1.26,7.32,7.32,0,0,1-3.68-.92,6.56,6.56,0,0,1-2.55-2.6,7.93,7.93,0,0,1-.92-3.89,8.12,8.12,0,0,1,.9-3.89,6.31,6.31,0,0,1,2.52-2.59,7.51,7.51,0,0,1,3.73-.91,7.3,7.3,0,0,1,3.61.88A6.25,6.25,0,0,1,205.46,41a7.48,7.48,0,0,1,.88,3.68A9.39,9.39,0,0,1,206.24,46.18Zm-3-2.39a3.37,3.37,0,0,0-1.17-2.63,4.19,4.19,0,0,0-2.83-1,3.81,3.81,0,0,0-2.63,1,4.07,4.07,0,0,0-1.3,2.64h7.93Z" style="fill:url(#Nueva_muestra_de_degradado_1)"/><path d="M213.95,38.29a5.12,5.12,0,0,1,2.56-.61v3.07h-0.75a3.61,3.61,0,0,0-2.64.88,4.23,4.23,0,0,0-.9,3.07v7.54h-3V37.91h3V40A4.65,4.65,0,0,1,213.95,38.29Z" style="fill:url(#Nueva_muestra_de_degradado_1)"/><g id="logo"><path id="bubble" d="M27.5,2.16C12,2.16,0,13.5,0,28.83A26.09,26.09,0,0,0,8.64,48.56a2.2,2.2,0,0,1,.74,1.57L9.53,55A2.2,2.2,0,0,0,12.61,57l5.46-2.41a2.2,2.2,0,0,1,1.47-.11,30,30,0,0,0,8,1.06C43,55.51,55,44.16,55,28.83S43,2.16,27.5,2.16Z" style="fill-rule:evenodd;fill:url(#Nueva_muestra_de_degradado_1-18)"/><path id="bolt" d="M11,36.63l8.08-12.82a4.12,4.12,0,0,1,6-1.1l6.42,4.82a1.65,1.65,0,0,0,2,0l8.68-6.59A1.31,1.31,0,0,1,44,22.68L35.94,35.5a4.12,4.12,0,0,1-6,1.1l-6.43-4.82a1.65,1.65,0,0,0-2,0l-8.68,6.59A1.31,1.31,0,0,1,11,36.63Z" style="fill:#fff;fill-rule:evenodd"/></g></svg>