<svg id="Layer_1" data-name="Layer 1" xmlns="http://www.w3.org/2000/svg" width="50" height="50" viewBox="0 0 50 50"><title>tiktock-icon</title><circle cx="25" cy="25" r="25"/><path d="M18.33,35l0.09,0.08c0.28,0.2.48,0.48,0.74,0.69A4.83,4.83,0,0,0,22,36.89a4.76,4.76,0,0,0,5-4.22,3.21,3.21,0,0,0,0-.36q0-11.22,0-22.44c0-.5,0-0.5.5-0.5h3.41a0.51,0.51,0,0,1,.32,0l0,0a0.39,0.39,0,0,1,.09.2,7.87,7.87,0,0,0,3.16,4.84c0.1,0.08.19,0.17,0.29,0.25L35,14.9a5,5,0,0,1,.69.59,7.87,7.87,0,0,0,3.12,1.59,0.46,0.46,0,0,1,.29.12l0,0a0.33,0.33,0,0,1,.06.25q0,2,0,4c0,0.3,0,.32-0.35.32a12.68,12.68,0,0,1-2.85-.34,13.67,13.67,0,0,1-4.48-1.93,0.29,0.29,0,0,0-.22-0.11c-0.1,0,0,.17,0,0.26,0,3.71,0,7.42,0,11.14A10.62,10.62,0,0,1,21.79,41.3a10.51,10.51,0,0,1-6-1.07,5.52,5.52,0,0,1-.88-0.54l-0.26-.23a7.21,7.21,0,0,1-1.54-2,10.68,10.68,0,0,1-1.43-5.79,10.61,10.61,0,0,1,7.25-9.59,9.61,9.61,0,0,1,2.44-.5,3.48,3.48,0,0,1,.46,0,0.34,0.34,0,0,1,.21,0l0,0a0.44,0.44,0,0,1,0,.24q0,2,0,4S22,26,22,26a0.14,0.14,0,0,1-.2.14A5.07,5.07,0,0,0,20.72,26a4.27,4.27,0,0,0-1.71.25,4.76,4.76,0,0,0-1.07,8.48C18.07,34.84,18.2,34.93,18.33,35Z" style="fill:#fff"/><path d="M14.86,39.7a0.2,0.2,0,0,1,.16.07,10.6,10.6,0,0,0,3.87,1.43,10,10,0,0,0,2.1.12,10.58,10.58,0,0,0,9.78-7.89,10.27,10.27,0,0,0,.32-2.12c0-.41,0-0.82,0-1.24q0-5.31,0-10.61V19.22a0.2,0.2,0,0,1,.18.08,13.59,13.59,0,0,0,4.1,1.91,13.82,13.82,0,0,0,2.47.44c0.35,0,.7,0,1.05.05,0.15,0,.16,0,0.16-0.16s0-.34,0-0.51q0-1.8,0-3.59c0-.07,0-0.15,0-0.22,0.32,0,.63.1,0.94,0.13a5.56,5.56,0,0,0,.59,0c0.1,0,.14,0,0.13.13a1.1,1.1,0,0,0,0,.12v5.19s0,0.07,0,.1,0,0.15-.16.15A12.57,12.57,0,0,1,39,23a13.66,13.66,0,0,1-6-2.29l-0.19-.13V20.8q0,5.67,0,11.34a10.54,10.54,0,0,1-11.3,10.53A10.46,10.46,0,0,1,15,39.85Z" style="fill:#fe2c55"/><path d="M31.19,9.41H27.31c-0.28,0-.28,0-0.28.27Q27,20.86,27,32a4.81,4.81,0,0,1-.2,1.52,4.84,4.84,0,0,1-8.36,1.66l-0.05-.08a6.51,6.51,0,0,0,1.13.37,4.84,4.84,0,0,0,5.76-4,4.67,4.67,0,0,0,.06-0.83q0-11.18,0-22.36c0-.35,0-0.3.3-0.3h5.28c0.18,0,.18,0,0.18.18A5.88,5.88,0,0,0,31.19,9.41Z" style="fill:#26f5ed"/><path d="M22,21.64a10.84,10.84,0,0,0-3.08.53,10.58,10.58,0,0,0-6.85,7.17,10.18,10.18,0,0,0-.36,2.09,10.47,10.47,0,0,0,2.86,8l0,0.07a2.5,2.5,0,0,1-.55-0.38,10.54,10.54,0,0,1-4-9A10.54,10.54,0,0,1,17,20.89a10.51,10.51,0,0,1,2.8-.59,10.89,10.89,0,0,1,2.08,0c0.09,0,.15,0,0.15.14C22,20.87,22,21.25,22,21.64Z" style="fill:#26f5ed"/><path d="M18.33,35a4,4,0,0,1-1.12-.79,4.7,4.7,0,0,1-1.46-2.93,4.82,4.82,0,0,1,6.08-5.18,0.29,0.29,0,0,0,.16,0,0.55,0.55,0,0,0,0-.22q0-2,0-4.06c0-.07,0-0.15,0-0.22a8.69,8.69,0,0,1,1.56.07,0.1,0.1,0,0,1,.1.12s0,0.08,0,.12q0,2.69,0,5.38a0.35,0.35,0,0,1,0,.21c-0.24,0-.47-0.12-0.71-0.15a4.74,4.74,0,0,0-3.73,1,4.63,4.63,0,0,0-1.76,3,4.72,4.72,0,0,0,.79,3.55Z" style="fill:#fe2b54"/><path d="M34.74,14.72a6.74,6.74,0,0,1-1.4-1.13,7.91,7.91,0,0,1-2.14-4.12,0.24,0.24,0,0,1,0,0c0.49,0,1,0,1.46,0a0.1,0.1,0,0,1,.12.12s0,0.07,0,.1a7.3,7.3,0,0,0,1,3.78,7.82,7.82,0,0,0,.83,1.17A0.26,0.26,0,0,1,34.74,14.72Z" style="fill:#fe2c55"/><path d="M39.06,17.21a7.91,7.91,0,0,1-3.66-1.86A2.86,2.86,0,0,1,35,14.9a0.22,0.22,0,0,1,.13,0,8,8,0,0,0,2.69,1,6.53,6.53,0,0,0,1.13.1c0.16,0,.16,0,0.16.15C39.07,16.51,39.07,16.86,39.06,17.21Z" style="fill:#6abac5"/></svg>