<svg id="Layer_1" data-name="Layer 1" xmlns="http://www.w3.org/2000/svg" width="211.59" height="55" viewBox="0 0 211.59 55"><title>ws btn</title><path d="M100.65,2.43L95.3,20.5H91.94L88.15,6.83l-4,13.68-3.33,0L75.67,2.43h3.15l3.74,14.72L86.61,2.43h3.33l3.77,14.64L97.48,2.43h3.17Z" style="fill:#25d366"/><path d="M113.43,6.65a5,5,0,0,1,2,2.08,6.94,6.94,0,0,1,.74,3.33V20.5h-2.94v-8a4.16,4.16,0,0,0-1-3,3.42,3.42,0,0,0-2.63-1,3.47,3.47,0,0,0-2.64,1,4.12,4.12,0,0,0-1,3v8h-3V1.26h3V7.84A5,5,0,0,1,108,6.44a6.39,6.39,0,0,1,2.53-.49A6,6,0,0,1,113.43,6.65Z" style="fill:#25d366"/><path d="M119.88,9.45a6.54,6.54,0,0,1,5.86-3.51,6.25,6.25,0,0,1,3,.66,6,6,0,0,1,2,1.65V6.18h3V20.5h-3V18.37a5.89,5.89,0,0,1-2.05,1.69,6.65,6.65,0,0,1-6.34-.27,6.73,6.73,0,0,1-2.43-2.65,8.16,8.16,0,0,1-.9-3.86A7.93,7.93,0,0,1,119.88,9.45Zm10.22,1.3a4.29,4.29,0,0,0-1.6-1.66,4.19,4.19,0,0,0-2.13-.57,4.26,4.26,0,0,0-2.13.56,4.21,4.21,0,0,0-1.6,1.64,5.11,5.11,0,0,0-.61,2.56,5.33,5.33,0,0,0,.61,2.6,4.3,4.3,0,0,0,1.61,1.7,4.14,4.14,0,0,0,2.12.58,4.19,4.19,0,0,0,2.13-.57,4.27,4.27,0,0,0,1.6-1.68,5.27,5.27,0,0,0,.61-2.59A5.19,5.19,0,0,0,130.1,10.75Z" style="fill:#25d366"/><path d="M141.06,8.6v7.93a1.52,1.52,0,0,0,.38,1.16,1.87,1.87,0,0,0,1.29.35h1.82V20.5H142.2a4.51,4.51,0,0,1-3.07-.94,3.86,3.86,0,0,1-1.07-3V8.6h-1.69V6.18h1.69V2.62h3V6.18h3.48V8.6h-3.48Z" style="fill:#25d366"/><path d="M149.44,20.13a5.32,5.32,0,0,1-2.12-1.66,4.15,4.15,0,0,1-.83-2.35h3.07a2.09,2.09,0,0,0,.87,1.52,3.16,3.16,0,0,0,2,.61,3.35,3.35,0,0,0,1.94-.48,1.45,1.45,0,0,0,.69-1.23,1.27,1.27,0,0,0-.77-1.2,14.36,14.36,0,0,0-2.43-.86,23.33,23.33,0,0,1-2.63-.86,4.6,4.6,0,0,1-1.75-1.27,3.34,3.34,0,0,1-.74-2.26A3.53,3.53,0,0,1,147.4,8a4.51,4.51,0,0,1,1.94-1.5,7.24,7.24,0,0,1,2.9-.55,6,6,0,0,1,3.94,1.23,4.44,4.44,0,0,1,1.6,3.37h-3A2.11,2.11,0,0,0,154,9a2.92,2.92,0,0,0-1.9-.57,3.08,3.08,0,0,0-1.79.44,1.37,1.37,0,0,0-.62,1.17,1.27,1.27,0,0,0,.42,1,3,3,0,0,0,1,.61q0.6,0.22,1.77.56a19.23,19.23,0,0,1,2.56.84,4.77,4.77,0,0,1,1.73,1.26A3.34,3.34,0,0,1,158,16.5a3.71,3.71,0,0,1-.68,2.18,4.48,4.48,0,0,1-1.91,1.51,7.12,7.12,0,0,1-2.9.55A7.22,7.22,0,0,1,149.44,20.13Z" style="fill:#25d366"/><path d="M172,16.81h-7.57l-1.3,3.69h-3.09l6.47-18.1H170l6.47,18.1h-3.12Zm-0.83-2.42L168.28,6l-3,8.4h5.9Z" style="fill:#25d366"/><path d="M184.29,6.62a6.27,6.27,0,0,1,2.94-.68,6.49,6.49,0,0,1,5.85,3.51,8,8,0,0,1,.88,3.82,8.25,8.25,0,0,1-.88,3.86,6.61,6.61,0,0,1-2.43,2.65,6.41,6.41,0,0,1-3.42.95,6.21,6.21,0,0,1-2.91-.66,6.51,6.51,0,0,1-2.08-1.65v8.89h-3V6.18h3V8.28A6,6,0,0,1,184.29,6.62Zm6,4.09a4.19,4.19,0,0,0-1.61-1.64,4.33,4.33,0,0,0-2.15-.56,4.21,4.21,0,0,0-2.12.57,4.26,4.26,0,0,0-1.61,1.66,5.19,5.19,0,0,0-.61,2.57,5.26,5.26,0,0,0,.61,2.59,4.23,4.23,0,0,0,3.73,2.25,4.18,4.18,0,0,0,2.15-.58,4.32,4.32,0,0,0,1.61-1.7,5.34,5.34,0,0,0,.61-2.6A5.12,5.12,0,0,0,190.34,10.71Z" style="fill:#25d366"/><path d="M201.92,6.62a6.27,6.27,0,0,1,2.94-.68,6.49,6.49,0,0,1,5.85,3.51,8,8,0,0,1,.88,3.82,8.25,8.25,0,0,1-.88,3.86,6.61,6.61,0,0,1-2.43,2.65,6.41,6.41,0,0,1-3.42.95,6.21,6.21,0,0,1-2.91-.66,6.51,6.51,0,0,1-2.08-1.65v8.89h-3V6.18h3V8.28A6,6,0,0,1,201.92,6.62Zm6,4.09a4.19,4.19,0,0,0-1.61-1.64,4.33,4.33,0,0,0-2.15-.56,4.21,4.21,0,0,0-2.12.57,4.26,4.26,0,0,0-1.61,1.66,5.19,5.19,0,0,0-.61,2.57,5.26,5.26,0,0,0,.61,2.59,4.23,4.23,0,0,0,3.73,2.25,4.18,4.18,0,0,0,2.15-.58,4.32,4.32,0,0,0,1.61-1.7,5.34,5.34,0,0,0,.61-2.6A5.12,5.12,0,0,0,208,10.71Z" style="fill:#25d366"/><path d="M87.81,45.76a4.64,4.64,0,0,1,.3,5.37A4.85,4.85,0,0,1,86,52.87a7.3,7.3,0,0,1-3.15.64H75.67V35.43h6.89a7.4,7.4,0,0,1,3.17.62,4.66,4.66,0,0,1,2,1.68,4.27,4.27,0,0,1,.68,2.35,4,4,0,0,1-.83,2.6,4.84,4.84,0,0,1-2.24,1.53A4,4,0,0,1,87.81,45.76ZM78.63,43H82.3a3.52,3.52,0,0,0,2.27-.66,2.32,2.32,0,0,0,.82-1.91,2.36,2.36,0,0,0-.82-1.91,3.43,3.43,0,0,0-2.27-.69H78.63V43ZM85,50.36a2.52,2.52,0,0,0,.86-2,2.63,2.63,0,0,0-.91-2.11,3.59,3.59,0,0,0-2.42-.78h-3.9v5.64h4A3.55,3.55,0,0,0,85,50.36Z" style="fill:#25d366"/><path d="M105,39.18V53.5h-3V51.81a4.8,4.8,0,0,1-1.83,1.39,5.81,5.81,0,0,1-2.4.51,6.42,6.42,0,0,1-3-.7,5.07,5.07,0,0,1-2.11-2.08,6.75,6.75,0,0,1-.77-3.33V39.18h2.94v8a4.16,4.16,0,0,0,1,3,3.42,3.42,0,0,0,2.63,1,3.46,3.46,0,0,0,2.64-1,4.12,4.12,0,0,0,1-3v-8h3Z" style="fill:#25d366"/><path d="M111.09,53.13A5.32,5.32,0,0,1,109,51.46a4.15,4.15,0,0,1-.83-2.35h3.07a2.09,2.09,0,0,0,.87,1.52,3.16,3.16,0,0,0,2,.61,3.35,3.35,0,0,0,1.94-.48,1.45,1.45,0,0,0,.69-1.23,1.27,1.27,0,0,0-.77-1.2,14.36,14.36,0,0,0-2.43-.86,23.33,23.33,0,0,1-2.63-.86,4.6,4.6,0,0,1-1.75-1.27,3.34,3.34,0,0,1-.74-2.26,3.53,3.53,0,0,1,.68-2.09,4.51,4.51,0,0,1,1.94-1.5,7.24,7.24,0,0,1,2.9-.55,6,6,0,0,1,3.94,1.23,4.44,4.44,0,0,1,1.6,3.37h-3a2.11,2.11,0,0,0-.78-1.53,2.92,2.92,0,0,0-1.9-.57,3.08,3.08,0,0,0-1.79.44,1.37,1.37,0,0,0-.62,1.17,1.27,1.27,0,0,0,.42,1,3,3,0,0,0,1,.61q0.6,0.22,1.77.56a19.23,19.23,0,0,1,2.56.84,4.77,4.77,0,0,1,1.73,1.26,3.34,3.34,0,0,1,.75,2.21,3.71,3.71,0,0,1-.68,2.18A4.48,4.48,0,0,1,117,53.19a7.12,7.12,0,0,1-2.9.55A7.22,7.22,0,0,1,111.09,53.13Z" style="fill:#25d366"/><path d="M123,36.73a1.9,1.9,0,0,1,1.35-3.25,1.81,1.81,0,0,1,1.33.55,1.95,1.95,0,0,1,0,2.7,1.8,1.8,0,0,1-1.33.55A1.84,1.84,0,0,1,123,36.73Zm2.81,2.44V53.5h-3V39.18h3Z" style="fill:#25d366"/><path d="M139.93,39.65A5,5,0,0,1,142,41.73a6.84,6.84,0,0,1,.75,3.33V53.5h-2.94v-8a4.16,4.16,0,0,0-1-3,3.42,3.42,0,0,0-2.63-1,3.47,3.47,0,0,0-2.64,1,4.12,4.12,0,0,0-1,3v8h-3V39.18h3v1.64a4.91,4.91,0,0,1,1.86-1.38,6,6,0,0,1,2.41-.49A6.42,6.42,0,0,1,139.93,39.65Z" style="fill:#25d366"/><path d="M159.57,47.45H148.62a4,4,0,0,0,1.27,2.76,4,4,0,0,0,2.81,1,3.47,3.47,0,0,0,3.38-2h3.2a6.45,6.45,0,0,1-2.35,3.24,6.9,6.9,0,0,1-4.23,1.26,7.32,7.32,0,0,1-3.68-.92,6.56,6.56,0,0,1-2.55-2.6,7.93,7.93,0,0,1-.92-3.89,8.12,8.12,0,0,1,.9-3.89A6.31,6.31,0,0,1,149,39.85a7.51,7.51,0,0,1,3.73-.91,7.3,7.3,0,0,1,3.61.88,6.25,6.25,0,0,1,2.47,2.48,7.48,7.48,0,0,1,.88,3.68A9.32,9.32,0,0,1,159.57,47.45Zm-3-2.39a3.37,3.37,0,0,0-1.17-2.63,4.19,4.19,0,0,0-2.83-1,3.81,3.81,0,0,0-2.63,1,4.07,4.07,0,0,0-1.3,2.64h7.93Z" style="fill:#25d366"/><path d="M164.76,53.13a5.32,5.32,0,0,1-2.12-1.66,4.15,4.15,0,0,1-.83-2.35h3.07a2.09,2.09,0,0,0,.87,1.52,3.16,3.16,0,0,0,2,.61,3.35,3.35,0,0,0,1.94-.48,1.45,1.45,0,0,0,.69-1.23,1.27,1.27,0,0,0-.77-1.2,14.36,14.36,0,0,0-2.43-.86,23.33,23.33,0,0,1-2.63-.86,4.6,4.6,0,0,1-1.75-1.27,3.34,3.34,0,0,1-.74-2.26,3.53,3.53,0,0,1,.68-2.09,4.51,4.51,0,0,1,1.94-1.5,7.24,7.24,0,0,1,2.9-.55,6,6,0,0,1,3.94,1.23,4.44,4.44,0,0,1,1.6,3.37h-3a2.11,2.11,0,0,0-.78-1.53,2.92,2.92,0,0,0-1.9-.57,3.08,3.08,0,0,0-1.79.44,1.37,1.37,0,0,0-.62,1.17,1.27,1.27,0,0,0,.42,1,3,3,0,0,0,1,.61q0.6,0.22,1.77.56a19.23,19.23,0,0,1,2.56.84,4.77,4.77,0,0,1,1.73,1.26,3.34,3.34,0,0,1,.75,2.21,3.71,3.71,0,0,1-.68,2.18,4.48,4.48,0,0,1-1.91,1.51,7.12,7.12,0,0,1-2.9.55A7.22,7.22,0,0,1,164.76,53.13Z" style="fill:#25d366"/><path d="M178.64,53.13a5.32,5.32,0,0,1-2.12-1.66,4.15,4.15,0,0,1-.83-2.35h3.07a2.09,2.09,0,0,0,.87,1.52,3.16,3.16,0,0,0,2,.61,3.35,3.35,0,0,0,1.94-.48,1.45,1.45,0,0,0,.69-1.23,1.27,1.27,0,0,0-.77-1.2,14.36,14.36,0,0,0-2.43-.86,23.33,23.33,0,0,1-2.63-.86,4.6,4.6,0,0,1-1.75-1.27,3.34,3.34,0,0,1-.74-2.26A3.53,3.53,0,0,1,176.6,41a4.51,4.51,0,0,1,1.94-1.5,7.24,7.24,0,0,1,2.9-.55,6,6,0,0,1,3.94,1.23,4.44,4.44,0,0,1,1.6,3.37h-3a2.11,2.11,0,0,0-.78-1.53,2.92,2.92,0,0,0-1.9-.57,3.08,3.08,0,0,0-1.79.44,1.37,1.37,0,0,0-.62,1.17,1.27,1.27,0,0,0,.42,1,3,3,0,0,0,1,.61q0.6,0.22,1.77.56a19.23,19.23,0,0,1,2.56.84,4.77,4.77,0,0,1,1.73,1.26,3.34,3.34,0,0,1,.75,2.21,3.71,3.71,0,0,1-.68,2.18,4.48,4.48,0,0,1-1.91,1.51,7.12,7.12,0,0,1-2.9.55A7.22,7.22,0,0,1,178.64,53.13Z" style="fill:#25d366"/><g id="WA_Logo" data-name="WA Logo"><path d="M46.76,8A27.26,27.26,0,0,0,3.87,40.88L0,55l14.45-3.79a27.23,27.23,0,0,0,13,3.32h0A27.27,27.27,0,0,0,46.76,8ZM27.48,49.92h0a22.62,22.62,0,0,1-11.53-3.16l-0.83-.49L6.54,48.53l2.29-8.36-0.54-.86A22.65,22.65,0,1,1,27.48,49.92ZM39.91,33c-0.68-.34-4-2-4.65-2.22a1.06,1.06,0,0,0-1.53.34c-0.45.68-1.76,2.22-2.16,2.67a1,1,0,0,1-1.48.17,18.6,18.6,0,0,1-5.48-3.38,20.53,20.53,0,0,1-3.79-4.72,1,1,0,0,1,.3-1.39c0.31-.31.68-0.8,1-1.19a4.65,4.65,0,0,0,.68-1.14,1.25,1.25,0,0,0-.06-1.19c-0.17-.34-1.53-3.69-2.1-5.06s-1.11-1.15-1.53-1.17-0.85,0-1.31,0a2.5,2.5,0,0,0-1.82.85,7.64,7.64,0,0,0-2.38,5.68c0,3.35,2.44,6.59,2.78,7S21.22,35.58,28,38.53A39.13,39.13,0,0,0,31.93,40a9.33,9.33,0,0,0,4.29.27c1.31-.2,4-1.65,4.6-3.24a5.69,5.69,0,0,0,.4-3.24A3.44,3.44,0,0,0,39.91,33Z" style="fill:#25d366;fill-rule:evenodd"/></g></svg>