<svg id="Layer_1" data-name="Layer 1" xmlns="http://www.w3.org/2000/svg" width="115" height="115" viewBox="0 0 115 115"><title>ws-footer</title><circle cx="57.5" cy="57.5" r="57.5" style="fill:#25d366"/><g id="WA_Logo" data-name="WA Logo"><path d="M76.89,38A27.26,27.26,0,0,0,34,70.88L30.13,85l14.45-3.79a27.23,27.23,0,0,0,13,3.32h0A27.27,27.27,0,0,0,76.89,38ZM57.61,79.92h0a22.62,22.62,0,0,1-11.53-3.16l-0.83-.49-8.57,2.25L39,70.17l-0.54-.86A22.65,22.65,0,1,1,57.61,79.92ZM70,63c-0.68-.34-4-2-4.65-2.22a1.06,1.06,0,0,0-1.53.34c-0.45.68-1.76,2.22-2.16,2.67a1,1,0,0,1-1.48.17,18.59,18.59,0,0,1-5.48-3.38A20.52,20.52,0,0,1,51,55.83a1,1,0,0,1,.3-1.39c0.31-.31.68-0.8,1-1.19A4.65,4.65,0,0,0,53,52.11a1.25,1.25,0,0,0-.06-1.19c-0.17-.34-1.53-3.69-2.1-5.06s-1.11-1.15-1.53-1.17-0.85,0-1.31,0a2.5,2.5,0,0,0-1.82.85,7.64,7.64,0,0,0-2.38,5.68c0,3.35,2.44,6.59,2.78,7s4.8,7.33,11.63,10.28A39.13,39.13,0,0,0,62.06,70a9.33,9.33,0,0,0,4.29.27c1.31-.2,4-1.65,4.6-3.24a5.69,5.69,0,0,0,.4-3.24A3.44,3.44,0,0,0,70,63Z" style="fill:#fff;fill-rule:evenodd"/></g></svg>